# xmcd
#
# Track frame offsets:
#	150
#	21145
#	42012
#	56536
#	74070
#	95663
#	111180
#	124212
#	136640
#	147412
#	160100
#	184097
#
# Disc length: 2675 seconds
#
# Revision: 1
# Processed by: cddbd v1.5.1PL2 Copyright (c) Steve Scherf et al.
# Submitted via: audiograbber 1.83.01
#
DISCID=a90a710c
DTITLE=John Landry - Someday
DYEAR=2005
DGENRE=Country
TTITLE0=Someday
TTITLE1=Wish I Were Blind
TTITLE2=Break It To Me Gently
TTITLE3=Beauty's In The Eye of the Beerholder
TTITLE4=She Comes To Me
TTITLE5=I Thank The Fool
TTITLE6=Palm of His Hand
TTITLE7=She Changed Her Mind
TTITLE8=Believe Me I'm Lying
TTITLE9=Shoulda Kept
TTITLE10=Can't Stop Crying
TTITLE11=Midnight Oil
EXTD=Canadian Artist
EXTT0=
EXTT1=
EXTT2=
EXTT3=
EXTT4=
EXTT5=
EXTT6=
EXTT7=
EXTT8=
EXTT9=
EXTT10=
EXTT11=
PLAYORDER=
